# xmcd
#
# Track frame offsets:
#	157
#	27795
#	53220
#	74295
#	98440
#	118290
#	132922
#	156800
#	167332
#	185467
#	208557
#	221345
#
# Disc length: 3221 seconds
#
# Revision: 0
# Processed by: cddbd v1.5.2PL0 Copyright (c) Steve Scherf et al.
# Submitted via: EasyCDDAExtractor 16.0.1.1
#
DISCID=9e0c930c
DTITLE=Sam Bush - Glamour and Grits
DYEAR=1996
DGENRE=Bluegrass
TTITLE0=Whayasay
TTITLE1=Same Ol' River
TTITLE2=All Night Radio
TTITLE3=Stingray
TTITLE4=The Ballad Of Spider John
TTITLE5=Watson Allman
TTITLE6=Is This Love
TTITLE7=Brilliancy
TTITLE8=Spooky Lane
TTITLE9=Ol' Joe Clark
TTITLE10=The Lord Came Unto Me
TTITLE11=(One Night In Old) Galway
EXTD=
EXTT0=
EXTT1=
EXTT2=
EXTT3=
EXTT4=
EXTT5=
EXTT6=
EXTT7=
EXTT8=
EXTT9=
EXTT10=
EXTT11=
PLAYORDER=
